<svg xmlns="http://www.w3.org/2000/svg" viewBox="0 0 201.159 120.187"><g data-name="Layer 2"><g data-name="ART"><path d="M164.898 92.895V77.798c0-3.617-24.468-8.662-64.318-8.662S36.26 74.181 36.26 77.798v15.097c18.436-2.228 41.706-3.382 64.319-3.382s45.882 1.154 64.318 3.382z" fill="#e6e7e8"/><path d="M36.257 103.14c0 .008.004.015.004.023 0 3.615 24.47 8.66 64.319 8.66s64.318-5.045 64.318-8.66c0-.008.005-.015.005-.023-17.94-1.47-40.481-2.273-64.323-2.273s-46.383.804-64.323 2.273z" fill="#df642f"/><path d="M164.898 86.996v-9.198c0-3.617-24.468-8.662-64.318-8.662S36.26 74.181 36.26 77.798v9.198c18.436-2.227 41.706-3.381 64.319-3.381s45.882 1.154 64.318 3.381z" fill="#fff"/><path d="M164.898 75.117V10.658c0-3.616-24.468-8.66-64.318-8.66S36.26 7.042 36.26 10.658v64.46c8.004-5.652 41.105-7.778 64.319-7.778s56.315 2.126 64.318 7.777z" fill="#f3783c"/><path d="M100.58 99.071c26.6 0 51.612.997 70.429 2.804 18.245 1.754 25.366 3.725 28.153 5.295v-2.42c0-6.357-40.486-13.44-98.582-13.44S1.998 98.392 1.998 104.75v2.42c2.786-1.57 9.908-3.541 28.153-5.295 18.817-1.807 43.829-2.804 70.429-2.804z" fill="#df642f"/><path d="M30.323 115.393c18.762 1.803 43.713 2.796 70.257 2.796s51.494-.993 70.257-2.796c28-2.69 28.325-5.833 28.325-5.864s-.324-3.175-28.325-5.866c-1.353-.13-2.747-.254-4.163-.376-.432 7.576-39.665 10.332-66.094 10.332s-65.663-2.756-66.095-10.332c-1.415.122-2.81.246-4.162.376-28.001 2.691-28.325 5.834-28.325 5.866s.324 3.173 28.325 5.864z" fill="#f3783c"/><path d="M100.58 120.187c-26.606 0-51.626-.997-70.448-2.805C0 114.487 0 111.012 0 109.528s0-4.959 30.132-7.853c18.822-1.809 43.842-2.805 70.448-2.805s51.625.996 70.448 2.805c30.131 2.894 30.131 6.37 30.131 7.853s0 4.96-30.13 7.854c-18.824 1.808-43.842 2.805-70.449 2.805zM2.212 109.528c.209.376 2.676 3.295 29.234 5.769 18.624 1.734 43.176 2.69 69.134 2.69s50.51-.956 69.134-2.69c27.838-2.593 29.206-5.675 29.25-5.805-.044-.057-1.412-3.14-29.25-5.732-18.624-1.735-43.176-2.69-69.134-2.69s-50.51.955-69.134 2.69c-26.558 2.473-29.025 5.392-29.234 5.768zM165.797 11.758a1.1 1.1 0 01-1.1-1.1c0-3.036-21.426-8.459-64.117-8.459s-64.117 5.423-64.117 8.46a1.1 1.1 0 01-2.2 0C34.264 2.837 73.924 0 100.58 0s66.316 2.838 66.316 10.658a1.1 1.1 0 01-1.1 1.1zM165.797 78.896a1.1 1.1 0 01-1.1-1.1c0-3.035-21.426-8.458-64.117-8.458s-64.117 5.423-64.117 8.459a1.1 1.1 0 01-2.2 0c0-7.82 39.66-10.658 66.317-10.658s66.316 2.838 66.316 10.658a1.1 1.1 0 01-1.1 1.1z" fill="#3e4147"/><path d="M100.58 113.821c-26.657 0-66.316-2.838-66.316-10.658a1.1 1.1 0 112.199 0c0 3.036 21.426 8.46 64.117 8.46s64.117-5.424 64.117-8.46a1.1 1.1 0 112.2 0c0 7.82-39.66 10.658-66.317 10.658z" fill="#3e4147"/><path d="M200.06 110.628a1.1 1.1 0 01-1.1-1.1v-4.779c0-2.3-7.384-6.05-28.194-9.05-18.739-2.701-43.664-4.188-70.186-4.188s-51.447 1.487-70.186 4.188c-20.81 3-28.195 6.75-28.195 9.05v4.78a1.1 1.1 0 11-2.199 0v-4.78c0-4.573 10.12-8.35 30.08-11.228 18.839-2.714 43.877-4.21 70.5-4.21s51.66 1.496 70.5 4.21c19.96 2.877 30.08 6.655 30.08 11.228v4.78a1.1 1.1 0 01-1.1 1.099z" fill="#3e4147"/><path d="M165.797 94.934a1.1 1.1 0 01-1.1-1.1V10.658a1.1 1.1 0 112.2 0v83.176a1.1 1.1 0 01-1.1 1.1zM35.363 94.78a.946.946 0 01-.946-.946V10.658a.946.946 0 011.893 0v83.176a.946.946 0 01-.947.946z" fill="#3e4147"/></g></g></svg>
