<svg xmlns="http://www.w3.org/2000/svg" height="163.933" width="273.471"><g stroke="#3e4147" stroke-linecap="round" stroke-linejoin="round" transform="translate(-11247.719 -1541.085)"><g fill="none" stroke-width="3.109"><path d="M11439.356 1656.584s16.61-10.237 16.105-15.343-6.682-8.282-8.126-18.208 30.656-33.9 41.555-45.046c19.918-20.361 17.174-34.205 21.512-33.856s8.387 25.276-10.72 42.2M11441.177 1669.1s14.419-8.928 18.852-9.573 13.823 9.893 21.752 8.734c2.578-.377-3.444-5.669-1.036-7.121s12.447 3.7 23.732-2.21c4.976-2.6-17.369-.738-15.528-3.611s34.325-21.078 27.562-43.01"/><path d="M11467.259 1612.643c14.155-9.11 28.254-31.7 31.141-29.87s1.756 15.83-18.361 41.011c0 0 15.006-14.963 18.321-13.462s-2.36 14.886-20.347 32.045c0 0 17.556-13.571 20.188-10.209s-12.932 17.526-22.489 22.222M11513.537 1561.309s16.058 15.241-14.339 51.684M11515.683 1585.8s16.354 20.287-17.481 46.362M11326.012 1659.124s-15.972-11.208-15.164-16.275 7.164-7.87 9.2-17.692-28.584-35.67-38.8-47.44c-18.671-21.511-15.106-35.167-19.457-35.077s-9.878 24.731 8.187 42.764M11323.449 1671.508s-13.862-9.771-18.247-10.679-14.389 9.053-22.234 7.423c-2.55-.53 3.776-5.453 1.458-7.046s-12.645 2.95-23.56-3.62c-4.811-2.9 17.384.3 15.718-2.679s-33.009-23.085-24.952-44.575"/><path d="M11300.776 1613.6c-13.588-9.937-26.317-33.326-29.308-31.671s-2.7 15.7 15.888 42.031c0 0-14.09-15.83-17.487-14.529s1.469 15 18.4 33.2c0 0-16.716-14.593-19.544-11.393s11.864 18.265 21.126 23.521M11257.636 1559.6s-16.937 14.258 11.236 52.446M11254.036 1583.916s-17.533 19.277 14.689 47.321"/></g><path d="M11292.77 1631.389l.252 72.379s118.714-5.377 177.15-5.61c-.9-23.283 4.818-51.255-2.525-73.92-32.237-.529-63.729 1.321-96.921 2.8-15.371.689-77.956 4.351-77.956 4.351z" fill="#b5c933" stroke-width="2.5"/><path d="M11309.98 1637.984s-1.187 9.781-9.941 11.907l1.26 36.789s5.18.269 9.108 8.211l144.419-4.946s-.205-10.1 8.138-11.237c0 0 1.318-32.615-.692-38.026 0 0-10.1-1.657-10.053-9.092z" fill="#cedd3e" stroke-width="2.5"/><ellipse cx="24.033" cy="22.512" fill="#b5c933" rx="24.033" ry="22.512" stroke-width="2.5" transform="rotate(-1.961 53635.82 -330980.84)"/><path d="M11387.131 1655.4c-.817-9.713-22.1 3.165-8.355 7.146 3.238.938 7.967.14 9.938 3.795 2.278 4.222-3.231 8.436-6.856 8.628-3.923.208-8.192-2.166-7.739-6.578" fill="#b5c933" stroke-width="2.5"/><path d="M11379.168 1648.485s.278 12.823.47 18.836c.1 3.091-.3 6.508.13 9.464M11383.066 1648.323c.325 9.513.811 19.344.446 28.787" fill="#b5c933" stroke-width="2.5"/></g></svg>
